<svg class="hidden">
    <symbol id="query-logo" viewBox="0 0 190 68">
        <path
            d="M57.386 120.453H68.34l-6.919-10.449c4.9-4.684 7.855-11.386 7.855-18.809 0-14.484-11.242-26.23-26.159-26.23-14.989 0-26.303 11.746-26.303 26.23 0 14.413 11.314 26.087 26.303 26.087 3.82 0 7.423-.792 10.666-2.161zM27.263 91.195c0-9.152 6.054-16.863 15.854-16.863 9.729 0 15.71 7.711 15.71 16.863 0 3.676-.937 7.063-2.738 9.873l-2.234-3.315H42.9l6.053 9.152c-1.73.649-3.675 1.01-5.837 1.01-9.8 0-15.854-7.568-15.854-16.72zm47.095 39.563h9.224V63.74h-9.224zm34.33-13.476c7.423 0 13.693-3.314 16.72-7.999l-7.567-5.693c-1.73 2.883-4.972 5.045-9.152 5.045-4.9 0-8.215-3.099-9.296-7.495h28.032c.217-1.225.289-2.378.289-3.459 0-10.81-7.783-19.745-19.025-19.745-11.242 0-19.385 8.936-19.385 19.745 0 10.81 7.783 19.601 19.385 19.601zm-9.295-23.42c1.08-4.468 4.54-7.567 9.152-7.567 4.756 0 8.287 3.387 9.368 7.567zm32.25 22.484h9.728v-19.17c0-6.269 4.324-10.016 9.945-10.016h1.37v-9.152c-6.487-.36-10.306 2.594-11.603 7.999v-7.135h-9.44zm32.781 14.192c8.792 0 13.476-5.117 16.647-12.684l16.575-39.85h-11.53l-7.279 21.402c-.648 1.802-1.225 4.036-1.585 5.981-.36-1.945-.937-4.18-1.586-5.981l-7.278-21.403h-11.746l14.845 35.744-.505 1.585c-1.08 3.315-3.459 5.693-7.206 5.693-1.586 0-2.955-.144-4.396-.504l-1.441 9.296c1.945.576 4.54.72 6.485.72zm33.844-14.125c3.748 0 6.414-2.883 6.414-6.342 0-3.387-2.666-6.27-6.414-6.27-3.747 0-6.485 2.883-6.485 6.27 0 3.46 2.738 6.342 6.485 6.342z"
            aria-label="Q|ery."
            fill="currentColor"
            transform="translate(-16.814 -63.74)" />
    </symbol>
    <symbol id="card-actions" viewBox="0 0 24 24">
        <path
            d="M12 14a1.5 1.5 0 110-3 1.5 1.5 0 010 3zm-4.5 0a1.5 1.5 0 110-3 1.5 1.5 0 010 3zm9 0a1.5 1.5 0 110-3 1.5 1.5 0 010 3z"
            fill="currentColor"
        />
    </symbol>
    <symbol id="circle-plus" viewBox="0 0 15 15">
        <path
            d="M7.49991 0.876892C3.84222 0.876892 0.877075 3.84204 0.877075 7.49972C0.877075 11.1574 3.84222 14.1226 7.49991 14.1226C11.1576 14.1226 14.1227 11.1574 14.1227 7.49972C14.1227 3.84204 11.1576 0.876892 7.49991 0.876892ZM1.82707 7.49972C1.82707 4.36671 4.36689 1.82689 7.49991 1.82689C10.6329 1.82689 13.1727 4.36671 13.1727 7.49972C13.1727 10.6327 10.6329 13.1726 7.49991 13.1726C4.36689 13.1726 1.82707 10.6327 1.82707 7.49972ZM7.50003 4C7.77617 4 8.00003 4.22386 8.00003 4.5V7H10.5C10.7762 7 11 7.22386 11 7.5C11 7.77614 10.7762 8 10.5 8H8.00003V10.5C8.00003 10.7761 7.77617 11 7.50003 11C7.22389 11 7.00003 10.7761 7.00003 10.5V8H4.50003C4.22389 8 4.00003 7.77614 4.00003 7.5C4.00003 7.22386 4.22389 7 4.50003 7H7.00003V4.5C7.00003 4.22386 7.22389 4 7.50003 4Z"
            fill="currentColor"
            fillRule="evenodd"
            clipRule="evenodd"
        />
    </symbol>
    <symbol id="plus" viewBox="0 0 20 20" fill="currentColor">
        <path
            d="M10.75 4.75a.75.75 0 00-1.5 0v4.5h-4.5a.75.75 0 000 1.5h4.5v4.5a.75.75 0 001.5 0v-4.5h4.5a.75.75 0 000-1.5h-4.5v-4.5z" />

    </symbol>
</svg>
